<svg xmlns="http://www.w3.org/2000/svg" aria-hidden="true" style="position:absolute;width:0;height:0;overflow:hidden">
  <defs>
    <symbol id="icon-icon-send" viewBox="0 0 32 32">
      <path d="M32 0 0 18l10 4L26 7 14 23v9l6-7 7 3 5-28z"/>
    </symbol>
    <symbol id="icon-phone" viewBox="0 0 32 32">
      <path d="m25 20-3-1-2 1-3 2c-4-1-6-4-8-8l2-2 1-2-1-4-2-2H7C5 4 4 5 4 7c1 11 10 19 20 20 2 0 3-1 3-2v-3l-2-2z"/>
    </symbol>
    <symbol id="icon-person" viewBox="0 0 32 32">
      <path d="M16 16a5 5 0 1 0 0-11 5 5 0 0 0 0 11zm0 3c-4 0-11 1-11 5v1l2 2h18l2-2v-1c0-4-7-5-11-5z"/>
    </symbol>
    <symbol id="icon-email" viewBox="0 0 32 32">
      <path d="M27 5H5L3 8v16l2 3h22l2-3V8l-2-3zm-1 6-9 6h-2l-9-6-1-1 2-1 9 6 9-6a1 1 0 1 1 1 2z"/>
    </symbol>
     <symbol id="icon-checkgood" viewBox="0 0 42 32">
      <path stroke-linejoin="miter" stroke-linecap="butt" stroke-miterlimit="4" stroke-width="0.64" d="M6.4 16l-3.2 3.2 9.6 9.6h3.2l22.4-22.4-3.2-3.2-22.4 19.2-6.4-6.4z"></path>
    </symbol>
  </defs>
</svg>
